<?xml version="1.0"?>
<svg xmlns="http://www.w3.org/2000/svg" xmlns:xlink="http://www.w3.org/1999/xlink" version="1.1" id="Capa_1" x="0px" y="0px" viewBox="0 0 490.667 490.667" style="enable-background:new 0 0 490.667 490.667;" xml:space="preserve" width="512px" height="512px"><g><g>
	<g>
		<path d="M245.333,0C110.059,0,0,110.059,0,245.333C0,296.768,15.979,344.512,43.157,384h128.597    c3.499-24.149,18.496-44.416,39.339-55.296l-81.963-163.925c-2.624-5.269-0.512-11.691,4.757-14.315    c5.291-2.624,11.669-0.512,14.315,4.757l83.093,166.187c4.565-0.853,9.237-1.408,14.037-1.408c37.504,0,68.352,27.904,73.579,64    h128.597c27.157-39.488,43.157-87.232,43.157-138.667C490.667,110.059,380.608,0,245.333,0z M78.805,270.037    c-1.493,4.48-5.653,7.296-10.112,7.296c-1.131,0-2.24-0.171-3.371-0.555l-29.44-9.813c-5.589-1.856-8.619-7.893-6.763-13.483    c1.877-5.589,7.936-8.576,13.504-6.741l29.44,9.813C77.653,258.411,80.661,264.448,78.805,270.037z M77.568,223.488    c-2.069,3.115-5.44,4.779-8.875,4.779c-2.048,0-4.096-0.576-5.909-1.792l-29.44-19.627c-4.907-3.285-6.229-9.899-2.965-14.805    c3.285-4.907,9.92-6.208,14.784-2.965l29.44,19.627C79.488,211.968,80.832,218.603,77.568,223.488z M95.851,166.272    c-2.069,2.069-4.8,3.115-7.531,3.115c-2.731,0-5.461-1.045-7.552-3.136l-29.44-29.44c-4.16-4.16-4.16-10.901,0-15.061    c4.16-4.16,10.923-4.16,15.083,0l29.44,29.44C100.011,155.349,100.011,162.112,95.851,166.272z M132.352,129.003    c-1.515,0.768-3.157,1.131-4.779,1.131c-3.904,0-7.659-2.155-9.536-5.888L98.389,84.992c-2.624-5.291-0.491-11.691,4.779-14.315    c5.205-2.624,11.669-0.512,14.315,4.757l19.648,39.253C139.755,119.957,137.621,126.357,132.352,129.003z M190.421,99.947    c-1.301,0.512-2.645,0.747-3.968,0.747c-4.224,0-8.235-2.539-9.899-6.699l-19.627-49.067c-2.176-5.483,0.469-11.691,5.952-13.867    c5.419-2.197,11.669,0.469,13.845,5.952l19.627,49.067C198.549,91.541,195.904,97.749,190.421,99.947z M460.288,192.043    c3.264,4.885,1.941,11.52-2.965,14.784l-29.44,19.627c-1.813,1.216-3.883,1.792-5.909,1.792c-3.435,0-6.805-1.664-8.875-4.757    c-3.264-4.885-1.941-11.52,2.965-14.784l29.44-19.627C450.347,185.835,456.981,187.136,460.288,192.043z M256,80.213    c0,5.888-4.779,10.667-10.667,10.667s-10.667-4.779-10.667-10.667v-58.88c0-5.888,4.779-10.667,10.667-10.667    S256,15.445,256,21.333V80.213z M333.717,44.928l-19.627,49.067c-1.643,4.181-5.653,6.699-9.877,6.699    c-1.323,0-2.667-0.235-3.968-0.768c-5.483-2.176-8.128-8.384-5.931-13.845l19.627-49.067c2.197-5.483,8.405-8.128,13.845-5.952    C333.269,33.259,335.915,39.467,333.717,44.928z M363.093,130.133c-1.6,0-3.243-0.363-4.779-1.131    c-5.269-2.624-7.403-9.024-4.779-14.315l19.648-39.253c2.667-5.269,9.131-7.381,14.315-4.779    c5.269,2.645,7.403,9.045,4.779,14.315l-19.648,39.253C370.752,127.979,366.976,130.133,363.093,130.133z M402.347,169.387    c-2.731,0-5.461-1.045-7.552-3.115c-4.16-4.16-4.16-10.923,0-15.083l29.461-29.44c4.16-4.16,10.923-4.16,15.083,0    c4.16,4.16,4.16,10.923,0,15.083l-29.44,29.44C407.808,168.341,405.077,169.387,402.347,169.387z M454.784,266.965l-29.44,9.813    c-1.131,0.384-2.24,0.555-3.371,0.555c-4.459,0-8.619-2.816-10.133-7.296c-1.856-5.589,1.173-11.627,6.741-13.483l29.44-9.813    c5.589-1.835,11.627,1.152,13.504,6.741C463.403,259.072,460.373,265.109,454.784,266.965z" data-original="#000000" class="active-path" data-old_color="#000000" fill="#FFFFFF"/>
	</g>
</g><g>
	<g>
		<path d="M59.755,405.333c45.013,52.139,111.445,85.333,185.579,85.333s140.544-33.195,185.579-85.333H59.755z" data-original="#000000" class="active-path" data-old_color="#000000" fill="#FFFFFF"/>
	</g>
</g></g> </svg>
