<?xml version="1.0"?>
<svg xmlns="http://www.w3.org/2000/svg" xmlns:xlink="http://www.w3.org/1999/xlink" version="1.1" id="Layer_1" x="0px" y="0px" viewBox="0 0 512 512" style="enable-background:new 0 0 512 512;" xml:space="preserve" width="512px" height="512px"><g><g>
	<g>
		<path d="M418.133,34.133H93.867C84.446,34.146,76.812,41.779,76.8,51.2v187.733c0.012,9.421,7.646,17.054,17.067,17.067h324.267    c9.421-0.012,17.054-7.646,17.067-17.067V51.2C435.188,41.779,427.554,34.146,418.133,34.133z M418.133,238.933L93.867,238.95    V51.2h324.267V238.933z" data-original="#000000" class="active-path" data-old_color="#000000" fill="#FFFFFF"/>
	</g>
</g><g>
	<g>
		<path d="M511.833,434.456c-0.039-2.649-0.498-5.275-1.358-7.78l-51.109-142.017c6.26-4.803,9.941-12.235,9.967-20.125V25.6    c-0.015-14.132-11.468-25.585-25.6-25.6H68.267c-14.132,0.015-25.585,11.468-25.6,25.6v238.933    c0.026,7.89,3.707,15.323,9.967,20.125l-51.1,142.008c-0.862,2.504-1.322,5.128-1.364,7.775C0.098,434.719,0.041,435,0,435.283    v42.583C0.019,496.71,15.29,511.981,34.133,512h443.733c18.844-0.019,34.115-15.29,34.133-34.133v-42.583    C511.959,435.005,511.904,434.728,511.833,434.456z M59.733,25.6c0.003-4.711,3.822-8.53,8.533-8.533h375.467    c4.711,0.003,8.53,3.822,8.533,8.533v238.933c-0.003,4.712-3.822,8.53-8.533,8.533H68.267c-4.711-0.003-8.53-3.822-8.533-8.533    V25.6z M68.808,290.133h374.383l21.498,59.733H302.658H47.313L68.808,290.133z M315.366,409.6l-119.108,0.092l13.084-42.758    h93.317L315.366,409.6z M17.592,432.458l23.579-65.525h150.023l-11.286,37.883c-1.54,5.086-0.555,10.602,2.65,14.842    c3.328,4.42,8.542,7.016,14.075,7.008h118.733c5.533,0.007,10.747-2.589,14.075-7.008c3.204-4.236,4.189-9.75,2.65-14.833    l-11.283-37.892h150.023l23.585,65.533c0.928,2.499,0.55,5.295-1.008,7.458c-1.722,2.434-4.536,3.859-7.517,3.808H315.733    c-4.71-0.003-8.531,3.813-8.533,8.523c0,0.003,0,0.007,0,0.01v8.533H204.8v-8.533c0.003-4.71-3.813-8.531-8.523-8.533    c-0.003,0-0.007,0-0.01,0H26.108c-2.981,0.051-5.794-1.375-7.517-3.808C17.032,437.759,16.657,434.958,17.592,432.458z     M494.933,477.867c-0.012,9.421-7.646,17.054-17.067,17.067H34.133c-9.421-0.012-17.054-7.646-17.067-17.067v-18.846    c2.886,1.121,5.947,1.723,9.042,1.779h161.625c0.012,9.421,7.646,17.054,17.067,17.067h102.4    c9.421-0.012,17.054-7.646,17.067-17.067h161.625c3.095-0.056,6.156-0.659,9.042-1.779V477.867z" data-original="#000000" class="active-path" data-old_color="#000000" fill="#FFFFFF"/>
	</g>
</g><g>
	<g>
		<path d="M284.063,121.804c10.729-15.499,6.862-36.762-8.637-47.491c-15.499-10.729-36.762-6.862-47.491,8.637    c-8.091,11.688-8.091,27.167,0.001,38.855c-9.205,7.794-14.54,19.225-14.602,31.286V179.2c-0.003,4.71,3.813,8.531,8.523,8.533    c0.003,0,0.007,0,0.01,0h68.267c4.71,0.003,8.531-3.813,8.533-8.523c0-0.003,0-0.007,0-0.01v-26.108    C298.605,141.029,293.269,129.598,284.063,121.804z M241.775,92.967c3.162-4.768,8.503-7.635,14.225-7.633    c9.422-0.004,17.062,7.63,17.067,17.052c0.003,5.726-2.867,11.071-7.642,14.231c-5.732,3.734-13.127,3.734-18.859,0    C238.713,111.409,236.568,100.82,241.775,92.967z M281.6,170.667h-51.2v-17.575c0.006-8.047,4.057-15.552,10.782-19.971    c9.354,4.551,20.281,4.55,29.634-0.002c6.726,4.42,10.778,11.925,10.783,19.973V170.667z" data-original="#000000" class="active-path" data-old_color="#000000" fill="#FFFFFF"/>
	</g>
</g><g>
	<g>
		<path d="M298.667,204.8h-85.333c-4.713,0-8.533,3.821-8.533,8.533c0,4.713,3.821,8.533,8.533,8.533h85.333    c4.713,0,8.533-3.821,8.533-8.533C307.2,208.621,303.38,204.8,298.667,204.8z" data-original="#000000" class="active-path" data-old_color="#000000" fill="#FFFFFF"/>
	</g>
</g><g>
	<g>
		<path d="M142.569,70.769c-0.001-0.001-0.002-0.002-0.003-0.003c-3.33-3.332-8.732-3.333-12.064-0.003    c-0.001,0.001-0.002,0.002-0.003,0.003l-17.067,17.067c-3.353,3.311-3.388,8.713-0.077,12.066    c3.311,3.353,8.713,3.388,12.066,0.077c0.026-0.026,0.052-0.051,0.077-0.077l17.067-17.067    C145.898,79.503,145.9,74.101,142.569,70.769z" data-original="#000000" class="active-path" data-old_color="#000000" fill="#FFFFFF"/>
	</g>
</g><g>
	<g>
		<path d="M193.658,70.767c-3.319-3.26-8.638-3.26-11.957,0l-51.2,51.2c-3.362,3.302-3.411,8.704-0.109,12.066    c3.302,3.362,8.704,3.411,12.066,0.109c0.037-0.036,0.073-0.072,0.109-0.109l51.2-51.2    C197.068,79.471,197.02,74.069,193.658,70.767z" data-original="#000000" class="active-path" data-old_color="#000000" fill="#FFFFFF"/>
	</g>
</g></g> </svg>
